<?xml version="1.0" encoding="UTF-8"?>
<svg xmlns="http://www.w3.org/2000/svg" xmlns:xlink="http://www.w3.org/1999/xlink" width="36pt" height="36pt" viewBox="0 0 36 36" version="1.1">
<g id="surface1">
<path style=" stroke:none;fill-rule:nonzero;fill:rgb(0%,51.372549%,74.509804%);fill-opacity:1;" d="M 4.5 0 L 31.5 0 C 33.984375 0 36 2.015625 36 4.5 L 36 31.5 C 36 33.984375 33.984375 36 31.5 36 L 4.5 36 C 2.015625 36 0 33.984375 0 31.5 L 0 4.5 C 0 2.015625 2.015625 0 4.5 0 Z M 4.5 0 "/>
<path style=" stroke:none;fill-rule:nonzero;fill:rgb(100%,100%,100%);fill-opacity:1;" d="M 4.292969 12.5625 L 10.324219 12.5625 L 10.324219 30.699219 L 4.292969 30.699219 Z M 4.292969 12.5625 "/>
<path style=" stroke:none;fill-rule:nonzero;fill:rgb(100%,100%,100%);fill-opacity:1;" d="M 7.347656 3.816406 C 5.285156 3.816406 3.9375 5.171875 3.9375 6.949219 C 3.9375 8.691406 5.246094 10.085938 7.269531 10.085938 L 7.308594 10.085938 C 9.410156 10.085938 10.71875 8.691406 10.71875 6.949219 C 10.679688 5.171875 9.410156 3.816406 7.347656 3.816406 Z M 7.347656 3.816406 "/>
<path style=" stroke:none;fill-rule:nonzero;fill:rgb(100%,100%,100%);fill-opacity:1;" d="M 25.121094 12.136719 C 21.921875 12.136719 20.488281 13.894531 19.6875 15.128906 L 19.6875 12.5625 L 13.660156 12.5625 C 13.738281 14.265625 13.660156 30.699219 13.660156 30.699219 L 19.6875 30.699219 L 19.6875 20.570312 C 19.6875 20.027344 19.726562 19.488281 19.886719 19.097656 C 20.320312 18.015625 21.3125 16.894531 22.980469 16.894531 C 25.160156 16.894531 26.035156 18.558594 26.035156 20.996094 L 26.035156 30.699219 L 32.0625 30.699219 L 32.0625 20.300781 C 32.0625 14.726562 29.089844 12.136719 25.121094 12.136719 Z M 25.121094 12.136719 "/>
</g>
</svg>
