<?xml version="1.0" encoding="UTF-8"?>
<svg xmlns="http://www.w3.org/2000/svg" xmlns:xlink="http://www.w3.org/1999/xlink" width="50pt" height="50pt" viewBox="0 0 50 50" version="1.1">
<g id="surface1">
<path style=" stroke:none;fill-rule:nonzero;fill:rgb(0%,51.372549%,74.509804%);fill-opacity:1;" d="M 6.25 0 L 43.75 0 C 47.203125 0 50 2.796875 50 6.25 L 50 43.75 C 50 47.203125 47.203125 50 43.75 50 L 6.25 50 C 2.796875 50 0 47.203125 0 43.75 L 0 6.25 C 0 2.796875 2.796875 0 6.25 0 Z M 6.25 0 "/>
<path style=" stroke:none;fill-rule:nonzero;fill:rgb(100%,100%,100%);fill-opacity:1;" d="M 5.960938 17.449219 L 14.335938 17.449219 L 14.335938 42.640625 L 5.960938 42.640625 Z M 5.960938 17.449219 "/>
<path style=" stroke:none;fill-rule:nonzero;fill:rgb(100%,100%,100%);fill-opacity:1;" d="M 10.207031 5.300781 C 7.339844 5.300781 5.46875 7.183594 5.46875 9.652344 C 5.46875 12.070312 7.285156 14.007812 10.09375 14.007812 L 10.148438 14.007812 C 13.070312 14.007812 14.886719 12.070312 14.886719 9.652344 C 14.832031 7.183594 13.070312 5.300781 10.207031 5.300781 Z M 10.207031 5.300781 "/>
<path style=" stroke:none;fill-rule:nonzero;fill:rgb(100%,100%,100%);fill-opacity:1;" d="M 34.890625 16.855469 C 30.449219 16.855469 28.457031 19.296875 27.34375 21.015625 L 27.34375 17.449219 L 18.972656 17.449219 C 19.082031 19.8125 18.972656 42.640625 18.972656 42.640625 L 27.34375 42.640625 L 27.34375 28.570312 C 27.34375 27.816406 27.398438 27.066406 27.621094 26.527344 C 28.222656 25.023438 29.601562 23.464844 31.917969 23.464844 C 34.945312 23.464844 36.15625 25.777344 36.15625 29.160156 L 36.15625 42.640625 L 44.53125 42.640625 L 44.53125 28.195312 C 44.53125 20.457031 40.398438 16.855469 34.890625 16.855469 Z M 34.890625 16.855469 "/>
</g>
</svg>
