<?xml version="1.0" encoding="UTF-8"?>
<svg xmlns="http://www.w3.org/2000/svg" xmlns:xlink="http://www.w3.org/1999/xlink" width="24pt" height="24pt" viewBox="0 0 24 24" version="1.1">
<g id="surface1">
<path style=" stroke:none;fill-rule:nonzero;fill:rgb(0%,51.372549%,74.509804%);fill-opacity:1;" d="M 3 0 L 21 0 C 22.65625 0 24 1.34375 24 3 L 24 21 C 24 22.65625 22.65625 24 21 24 L 3 24 C 1.34375 24 0 22.65625 0 21 L 0 3 C 0 1.34375 1.34375 0 3 0 Z M 3 0 "/>
<path style=" stroke:none;fill-rule:nonzero;fill:rgb(100%,100%,100%);fill-opacity:1;" d="M 2.863281 8.375 L 6.882812 8.375 L 6.882812 20.46875 L 2.863281 20.46875 Z M 2.863281 8.375 "/>
<path style=" stroke:none;fill-rule:nonzero;fill:rgb(100%,100%,100%);fill-opacity:1;" d="M 4.898438 2.542969 C 3.523438 2.542969 2.625 3.449219 2.625 4.632812 C 2.625 5.792969 3.496094 6.722656 4.847656 6.722656 L 4.871094 6.722656 C 6.273438 6.722656 7.144531 5.792969 7.144531 4.632812 C 7.121094 3.449219 6.273438 2.542969 4.898438 2.542969 Z M 4.898438 2.542969 "/>
<path style=" stroke:none;fill-rule:nonzero;fill:rgb(100%,100%,100%);fill-opacity:1;" d="M 16.746094 8.089844 C 14.613281 8.089844 13.660156 9.261719 13.125 10.085938 L 13.125 8.375 L 9.105469 8.375 C 9.160156 9.507812 9.105469 20.46875 9.105469 20.46875 L 13.125 20.46875 L 13.125 13.714844 C 13.125 13.351562 13.152344 12.992188 13.257812 12.734375 C 13.546875 12.011719 14.210938 11.261719 15.320312 11.261719 C 16.773438 11.261719 17.355469 12.371094 17.355469 13.996094 L 17.355469 20.46875 L 21.375 20.46875 L 21.375 13.53125 C 21.375 9.820312 19.390625 8.089844 16.746094 8.089844 Z M 16.746094 8.089844 "/>
</g>
</svg>
